<svg width="119" height="157" viewBox="0 0 119 157" fill="none" xmlns="http://www.w3.org/2000/svg">
<path d="M11.4739 54.5013C11.4739 78.2262 30.7756 97.5279 54.5005 97.5279C78.2254 97.5279 97.5272 78.2262 97.5272 54.5013C97.5272 30.7764 78.2254 11.4746 54.5005 11.4746C30.7756 11.4746 11.4739 30.7764 11.4739 54.5013ZM54.5005 17.2115C75.0627 17.2115 91.7903 33.9391 91.7903 54.5013C91.7903 75.0634 75.0627 91.791 54.5005 91.791C33.9384 91.791 17.2108 75.0634 17.2108 54.5013C17.2108 33.9391 33.9384 17.2115 54.5005 17.2115Z" fill="#1B2E5E"/>
<g filter="url(#filter0_d_254_2011)">
<path d="M27.9357 49.3866L39.0543 60.3414L36.4963 75.7381C36.4089 76.2637 36.4696 76.8032 36.6717 77.2962C36.8738 77.7892 37.2093 78.2161 37.6405 78.5291C38.0714 78.842 38.581 79.0289 39.1121 79.0687C39.6432 79.1085 40.1749 78.9997 40.6478 78.7545L54.5003 71.5611L68.352 78.7545C68.8247 79 69.3564 79.1089 69.8875 79.0692C70.4186 79.0294 70.9282 78.8425 71.359 78.5294C71.7902 78.2164 72.1257 77.7895 72.3278 77.2965C72.5299 76.8035 72.5906 76.264 72.5033 75.7384L69.9452 60.3414L81.0636 49.3866C81.4433 49.0129 81.7113 48.5407 81.8376 48.0232C81.964 47.5056 81.9435 46.9631 81.7787 46.4564C81.6137 45.9499 81.3111 45.4992 80.9046 45.1549C80.4981 44.8106 80.0038 44.5862 79.477 44.5068L64.0468 42.1842L57.065 28.2218C56.8269 27.7452 56.4608 27.3444 56.0077 27.0643C55.5546 26.7842 55.0325 26.6358 54.4998 26.6358C53.9671 26.6358 53.4449 26.7842 52.9918 27.0643C52.5387 27.3444 52.1726 27.7452 51.9345 28.2218L44.9527 42.1842L29.5225 44.5068C28.9958 44.5861 28.5016 44.8105 28.0952 45.1549C27.6888 45.4992 27.3863 45.95 27.2216 46.4565C27.0569 46.9631 27.0365 47.5055 27.1627 48.023C27.2889 48.5405 27.5563 49.0126 27.9357 49.3866ZM47.2799 47.6351C48.2032 47.4963 49.0009 46.9168 49.4189 46.0821L54.5003 35.9186L59.5818 46.0824C59.7877 46.4938 60.0896 46.8496 60.4618 47.1198C60.8341 47.3901 61.2659 47.5669 61.7208 47.6354L72.9513 49.3263L64.858 57.2986C64.5305 57.6217 64.2854 58.0188 64.1433 58.4563C64.0012 58.8939 63.9662 59.3592 64.0413 59.8131L65.9035 71.0189L55.8212 65.784C55.4129 65.5721 54.9596 65.4615 54.4996 65.4615C54.0396 65.4615 53.5863 65.5721 53.178 65.784L43.096 71.0189L44.9582 59.8131C45.0338 59.3592 44.9991 58.8937 44.8569 58.4561C44.7148 58.0184 44.4694 57.6214 44.1415 57.2986L36.0494 49.3263L47.2799 47.6351ZM57.3688 2.86844C57.3688 4.45268 56.0846 5.73689 54.5003 5.73689C52.9161 5.73689 51.6319 4.45268 51.6319 2.86844C51.6319 1.2842 52.9161 0 54.5003 0C56.0846 0 57.3688 1.2842 57.3688 2.86844Z" fill="#1B2E5E"/>
<path d="M40.9817 1.69101C16.8521 7.85013 0 29.5665 0 54.5005C0 69.9866 6.51137 84.579 17.9413 94.9131L0.659742 125.369C0.387752 125.849 0.259791 126.397 0.29118 126.947C0.322569 127.498 0.511976 128.028 0.836727 128.473C1.16148 128.919 1.60781 129.262 2.12228 129.46C2.63675 129.659 3.19757 129.705 3.73758 129.593L23.3629 125.518L30.2606 144.955C30.4444 145.473 30.773 145.927 31.2075 146.264C31.642 146.6 32.164 146.805 32.7113 146.853C33.2587 146.901 33.8084 146.791 34.2951 146.536C34.7817 146.281 35.1847 145.891 35.4563 145.413L54.5004 111.933L73.5432 145.413C73.7935 145.853 74.1559 146.219 74.5936 146.474C75.0313 146.729 75.5286 146.863 76.035 146.863C76.119 146.863 76.2042 146.86 76.2883 146.853C76.8357 146.804 77.3576 146.6 77.7922 146.263C78.2267 145.927 78.5557 145.473 78.7399 144.955L85.6365 125.518L105.262 129.593C106.364 129.822 107.499 129.384 108.163 128.474C108.488 128.028 108.677 127.498 108.709 126.947C108.74 126.397 108.612 125.849 108.34 125.369L91.0587 94.9131C102.489 84.5787 109 69.9866 109 54.5005C109 29.5663 92.1479 7.85013 68.0194 1.69101C67.6544 1.59769 67.2746 1.5772 66.9017 1.6307C66.5288 1.6842 66.1701 1.81064 65.8461 2.0028C65.5221 2.19497 65.2391 2.44909 65.0133 2.75064C64.7876 3.0522 64.6234 3.39528 64.5302 3.7603C64.1381 5.29549 65.0646 6.85736 66.5998 7.24948C88.1866 12.76 103.264 32.1906 103.264 54.5005C103.264 81.6532 81.2117 103.264 54.5004 103.264C27.77 103.264 5.73689 81.6354 5.73689 54.5005C5.73689 32.1906 20.8131 12.76 42.4002 7.24948C43.9354 6.85736 44.8619 5.29549 44.4712 3.7603C44.378 3.39525 44.2139 3.05214 43.9881 2.75056C43.7623 2.44898 43.4793 2.19485 43.1552 2.00268C42.8312 1.81052 42.4724 1.68408 42.0995 1.6306C41.7266 1.57712 41.3467 1.59765 40.9817 1.69101ZM33.5708 137.127L27.9338 121.242C27.702 120.589 30.8648 112.273 30.2606 111.933C29.6565 111.593 25.3262 119.252 24.6474 119.392L8.77801 122.688L22.4548 98.5839C30.429 104.381 39.8714 107.913 49.69 108.787L33.5708 137.127ZM84.3523 119.392C83.6735 119.252 78.3963 111.593 77.7922 111.933C77.188 112.273 81.2978 120.589 81.0659 121.242L75.43 137.127L59.3094 108.787C69.1295 107.913 78.571 104.381 86.5464 98.5839L100.223 122.687L84.3523 119.392Z" fill="#1B2E5E"/>
</g>
<defs>
<filter id="filter0_d_254_2011" x="0" y="0" width="119" height="156.863" filterUnits="userSpaceOnUse" color-interpolation-filters="sRGB">
<feFlood flood-opacity="0" result="BackgroundImageFix"/>
<feColorMatrix in="SourceAlpha" type="matrix" values="0 0 0 0 0 0 0 0 0 0 0 0 0 0 0 0 0 0 127 0" result="hardAlpha"/>
<feOffset dx="6" dy="6"/>
<feGaussianBlur stdDeviation="2"/>
<feComposite in2="hardAlpha" operator="out"/>
<feColorMatrix type="matrix" values="0 0 0 0 0.360784 0 0 0 0 0.52549 0 0 0 0 0.572549 0 0 0 0.55 0"/>
<feBlend mode="normal" in2="BackgroundImageFix" result="effect1_dropShadow_254_2011"/>
<feBlend mode="normal" in="SourceGraphic" in2="effect1_dropShadow_254_2011" result="shape"/>
</filter>
</defs>
</svg>
