<svg width="25" height="29" viewBox="0 0 25 29" fill="none" xmlns="http://www.w3.org/2000/svg">
<path d="M20.6314 17.3329V12.1418C20.6314 11.9119 20.4545 11.7882 20.2777 11.9119L14.9717 14.9717C14.8567 15.0336 14.7418 15.2105 14.7418 15.3874V21.5158C14.7418 21.7545 14.9186 21.8695 15.0955 21.7545L19.5702 19.1634L23.9388 21.6927L12.5575 28.2632L12.531 28.2808L12.4956 28.2632L4.79307 23.8061L1.14079 21.6838L5.4829 19.1634L9.9664 21.7545C10.1432 21.8695 10.3201 21.6927 10.2582 21.4627V15.3254C10.2582 15.1486 10.1963 15.0336 10.0195 14.9186L4.71348 11.85C4.59851 11.7881 4.35975 11.9119 4.35975 12.0887V17.271L0 19.809V6.60594L11.4963 0V5.06721L7.01273 7.66714C6.83587 7.7202 6.83587 8.02087 7.01273 8.07393L12.3187 11.1426C12.4425 11.2045 12.6194 11.2575 12.7963 11.1426L18.1022 8.07393C18.2791 8.02087 18.2791 7.7821 18.1022 7.66714L13.6187 5.06721V0L25 6.60594V19.7825L20.6314 17.3329Z" fill="#1B2E5E"/>
</svg>
