<svg width="28" height="34" viewBox="0 0 28 34" fill="none" xmlns="http://www.w3.org/2000/svg">
<path d="M22.6599 9.94394L22.9494 9.5555L27.1494 3.92059C27.261 3.77094 27.3292 3.59259 27.3459 3.40547C27.3627 3.21835 27.3273 3.03037 27.244 2.86272C27.1607 2.69509 27.033 2.55469 26.8756 2.45681C26.7182 2.35896 26.5373 2.30732 26.3529 2.30732H6.58823H5.93823V1.65732C5.93823 1.38887 5.83221 1.13221 5.64478 0.943608L6.10582 0.485419L5.64478 0.943608C5.45748 0.755141 5.2043 0.65 4.94118 0.65C4.67805 0.65 4.42488 0.755141 4.23757 0.943608C4.05014 1.13221 3.94412 1.38887 3.94412 1.65732V29.8318V30.4818H3.29412H1.64706C1.38393 30.4818 1.13076 30.587 0.943457 30.7754C0.756023 30.964 0.65 31.2207 0.65 31.4892C0.65 31.7576 0.756022 32.0143 0.943459 32.2029M22.6599 9.94394L0.943459 32.2029M22.6599 9.94394L22.9494 10.3324L27.1494 15.9673C27.261 16.1169 27.3292 16.2953 27.3459 16.4824C27.3627 16.6695 27.3273 16.8575 27.244 17.0252C27.1607 17.1928 27.033 17.3332 26.8756 17.4311C26.7182 17.5289 26.5373 17.5806 26.3529 17.5806H6.58823H5.93823V18.2306V29.8318V30.4818H6.58823H8.23529C8.49842 30.4818 8.75159 30.587 8.93889 30.7754C9.12633 30.964 9.23235 31.2207 9.23235 31.4892C9.23235 31.7576 9.12633 32.0143 8.93889 32.2029C8.7516 32.3913 8.49842 32.4965 8.23529 32.4965H1.64706C1.38393 32.4965 1.13076 32.3913 0.943459 32.2029M22.6599 9.94394L0.482413 32.6611L0.943459 32.2029" stroke="#1B2E5E" stroke-width="1.3"/>
</svg>
