<svg width="30" height="28" viewBox="0 0 30 28" fill="none" xmlns="http://www.w3.org/2000/svg">
<path d="M22.6172 12.1945C23.2644 12.1945 23.7891 11.7198 23.7891 11.1341C23.7891 10.5485 23.2644 10.0737 22.6172 10.0737C21.97 10.0737 21.4453 10.5485 21.4453 11.1341C21.4453 11.7198 21.97 12.1945 22.6172 12.1945Z" fill="#1B2E5E"/>
<path d="M25.3125 2.12082H23.7891V1.06041C23.7891 0.474745 23.2644 0 22.6172 0C21.97 0 21.4453 0.474745 21.4453 1.06041V2.12082H16.1133V1.06041C16.1133 0.474745 15.5886 0 14.9414 0C14.2942 0 13.7695 0.474745 13.7695 1.06041V2.12082H8.49609V1.06041C8.49609 0.474745 7.97145 0 7.32422 0C6.67699 0 6.15234 0.474745 6.15234 1.06041V2.12082H4.6875C2.10281 2.12082 0 4.02362 0 6.36246V22.9048C0 25.2437 2.10281 27.1465 4.6875 27.1465H13.6523C14.2996 27.1465 14.8242 26.6717 14.8242 26.0861C14.8242 25.5004 14.2996 25.0257 13.6523 25.0257H4.6875C3.39516 25.0257 2.34375 24.0743 2.34375 22.9048V6.36246C2.34375 5.19304 3.39516 4.24164 4.6875 4.24164H6.15234V5.30205C6.15234 5.88771 6.67699 6.36246 7.32422 6.36246C7.97145 6.36246 8.49609 5.88771 8.49609 5.30205V4.24164H13.7695V5.30205C13.7695 5.88771 14.2942 6.36246 14.9414 6.36246C15.5886 6.36246 16.1133 5.88771 16.1133 5.30205V4.24164H21.4453V5.30205C21.4453 5.88771 21.97 6.36246 22.6172 6.36246C23.2644 6.36246 23.7891 5.88771 23.7891 5.30205V4.24164H25.3125C26.6048 4.24164 27.6562 5.19304 27.6562 6.36246V12.4068C27.6562 12.9925 28.1809 13.4672 28.8281 13.4672C29.4754 13.4672 30 12.9925 30 12.4068V6.36246C30 4.02362 27.8972 2.12082 25.3125 2.12082Z" fill="#1B2E5E"/>
<path d="M22.9102 14.3154C19.0008 14.3154 15.8203 17.1934 15.8203 20.7309C15.8203 24.2684 19.0008 27.1464 22.9102 27.1464C26.8195 27.1464 30 24.2684 30 20.7309C30 17.1934 26.8195 14.3154 22.9102 14.3154ZM22.9102 25.0256C20.2932 25.0256 18.1641 23.099 18.1641 20.7309C18.1641 18.3628 20.2932 16.4362 22.9102 16.4362C25.5271 16.4362 27.6562 18.3628 27.6562 20.7309C27.6562 23.099 25.5271 25.0256 22.9102 25.0256Z" fill="#1B2E5E"/>
<path d="M24.6094 19.6704H24.082V18.557C24.082 17.9713 23.5574 17.4966 22.9102 17.4966C22.2629 17.4966 21.7383 17.9713 21.7383 18.557V20.7308C21.7383 21.3165 22.2629 21.7912 22.9102 21.7912H24.6094C25.2566 21.7912 25.7812 21.3165 25.7812 20.7308C25.7812 20.1452 25.2566 19.6704 24.6094 19.6704Z" fill="#1B2E5E"/>
<path d="M17.5195 12.1945C18.1667 12.1945 18.6914 11.7198 18.6914 11.1341C18.6914 10.5485 18.1667 10.0737 17.5195 10.0737C16.8723 10.0737 16.3477 10.5485 16.3477 11.1341C16.3477 11.7198 16.8723 12.1945 17.5195 12.1945Z" fill="#1B2E5E"/>
<path d="M12.4219 16.8073C13.0691 16.8073 13.5938 16.3326 13.5938 15.7469C13.5938 15.1613 13.0691 14.6865 12.4219 14.6865C11.7747 14.6865 11.25 15.1613 11.25 15.7469C11.25 16.3326 11.7747 16.8073 12.4219 16.8073Z" fill="#1B2E5E"/>
<path d="M7.32422 12.1945C7.97143 12.1945 8.49609 11.7198 8.49609 11.1341C8.49609 10.5485 7.97143 10.0737 7.32422 10.0737C6.67701 10.0737 6.15234 10.5485 6.15234 11.1341C6.15234 11.7198 6.67701 12.1945 7.32422 12.1945Z" fill="#1B2E5E"/>
<path d="M7.32422 16.8073C7.97143 16.8073 8.49609 16.3326 8.49609 15.7469C8.49609 15.1613 7.97143 14.6865 7.32422 14.6865C6.67701 14.6865 6.15234 15.1613 6.15234 15.7469C6.15234 16.3326 6.67701 16.8073 7.32422 16.8073Z" fill="#1B2E5E"/>
<path d="M7.32422 21.4201C7.97143 21.4201 8.49609 20.9454 8.49609 20.3597C8.49609 19.7741 7.97143 19.2993 7.32422 19.2993C6.67701 19.2993 6.15234 19.7741 6.15234 20.3597C6.15234 20.9454 6.67701 21.4201 7.32422 21.4201Z" fill="#1B2E5E"/>
<path d="M12.4219 21.4201C13.0691 21.4201 13.5938 20.9454 13.5938 20.3597C13.5938 19.7741 13.0691 19.2993 12.4219 19.2993C11.7747 19.2993 11.25 19.7741 11.25 20.3597C11.25 20.9454 11.7747 21.4201 12.4219 21.4201Z" fill="#1B2E5E"/>
<path d="M12.4219 12.1945C13.0691 12.1945 13.5938 11.7198 13.5938 11.1341C13.5938 10.5485 13.0691 10.0737 12.4219 10.0737C11.7747 10.0737 11.25 10.5485 11.25 11.1341C11.25 11.7198 11.7747 12.1945 12.4219 12.1945Z" fill="#1B2E5E"/>
</svg>
