<svg width="407" height="332" viewBox="0 0 407 332" fill="none" xmlns="http://www.w3.org/2000/svg">
<path d="M166 332C257.679 332 332 257.679 332 166C332 74.3207 257.679 0 166 0C74.3207 0 0 74.3207 0 166C0 257.679 74.3207 332 166 332Z" fill="url(#paint0_linear_1423_1614)"/>
<g filter="url(#filter0_d_1423_1614)">
<path d="M90.7467 75.2534H389.547C392.482 75.2534 395.297 76.4194 397.372 78.4948C399.447 80.5702 400.613 83.385 400.613 86.3201V141.653C400.613 144.588 399.447 147.403 397.372 149.479C395.297 151.554 392.482 152.72 389.547 152.72H90.7467C87.8116 152.72 84.9967 151.554 82.9213 149.479C80.8459 147.403 79.68 144.588 79.68 141.653V86.3201C79.68 83.385 80.8459 80.5702 82.9213 78.4948C84.9967 76.4194 87.8116 75.2534 90.7467 75.2534V75.2534Z" fill="white"/>
</g>
<path d="M232.4 92.96H174.853C171.186 92.96 168.213 95.9328 168.213 99.6C168.213 103.267 171.186 106.24 174.853 106.24H232.4C236.067 106.24 239.04 103.267 239.04 99.6C239.04 95.9328 236.067 92.96 232.4 92.96Z" fill="#B4DAFF"/>
<path d="M272.24 121.733H174.853C171.186 121.733 168.213 124.706 168.213 128.373C168.213 132.041 171.186 135.013 174.853 135.013H272.24C275.907 135.013 278.88 132.041 278.88 128.373C278.88 124.706 275.907 121.733 272.24 121.733Z" fill="#DEE9FC"/>
<path d="M150.507 113.987C150.507 96.262 136.138 81.8933 118.413 81.8933C100.689 81.8933 86.32 96.262 86.32 113.987C86.32 131.711 100.689 146.08 118.413 146.08C136.138 146.08 150.507 131.711 150.507 113.987Z" fill="#265D88"/>
<path d="M116.421 124.376C119.169 124.376 121.837 123.456 124.002 121.764L130.808 128.57L132.997 126.381L126.189 119.573C127.899 117.361 128.81 114.636 128.773 111.84C128.737 109.045 127.754 106.344 125.986 104.178C124.217 102.013 121.768 100.51 119.036 99.9145C116.304 99.3193 113.451 99.6669 110.942 100.901C108.434 102.134 106.416 104.181 105.22 106.708C104.023 109.235 103.718 112.093 104.353 114.815C104.989 117.538 106.528 119.965 108.719 121.701C110.911 123.438 113.626 124.38 116.421 124.376ZM116.421 102.699C118.26 102.699 120.057 103.244 121.586 104.265C123.115 105.287 124.306 106.738 125.01 108.437C125.713 110.136 125.897 112.005 125.539 113.808C125.18 115.611 124.295 117.268 122.995 118.568C121.695 119.868 120.038 120.753 118.235 121.112C116.432 121.471 114.563 121.287 112.864 120.583C111.165 119.879 109.713 118.688 108.692 117.159C107.671 115.63 107.125 113.833 107.125 111.995C107.125 109.529 108.105 107.165 109.848 105.421C111.591 103.678 113.956 102.699 116.421 102.699Z" fill="white"/>
<g filter="url(#filter1_d_1423_1614)">
<path d="M356.347 174.853H57.5466C51.4347 174.853 46.48 179.808 46.48 185.92V241.253C46.48 247.365 51.4347 252.32 57.5466 252.32H356.347C362.459 252.32 367.413 247.365 367.413 241.253V185.92C367.413 179.808 362.459 174.853 356.347 174.853Z" fill="white"/>
</g>
<path d="M199.2 192.56H141.653C137.986 192.56 135.013 195.533 135.013 199.2C135.013 202.867 137.986 205.84 141.653 205.84H199.2C202.867 205.84 205.84 202.867 205.84 199.2C205.84 195.533 202.867 192.56 199.2 192.56Z" fill="#B4DAFF"/>
<path d="M239.04 221.333H141.653C137.986 221.333 135.013 224.306 135.013 227.973C135.013 231.64 137.986 234.613 141.653 234.613H239.04C242.707 234.613 245.68 231.64 245.68 227.973C245.68 224.306 242.707 221.333 239.04 221.333Z" fill="#DEE9FC"/>
<path d="M117.307 213.587C117.307 195.862 102.938 181.493 85.2133 181.493C67.4887 181.493 53.12 195.862 53.12 213.587C53.12 231.311 67.4887 245.68 85.2133 245.68C102.938 245.68 117.307 231.311 117.307 213.587Z" fill="#265D88"/>
<path d="M83.2214 223.976C85.9689 223.975 88.6374 223.056 90.8021 221.364L97.6081 228.17L99.7971 225.981L92.9888 219.173C94.6994 216.961 95.6104 214.236 95.5735 211.44C95.5366 208.644 94.554 205.944 92.7857 203.778C91.0174 201.612 88.5678 200.11 85.836 199.514C83.1042 198.919 80.2514 199.267 77.7425 200.5C75.2336 201.734 73.2164 203.781 72.0199 206.308C70.8233 208.835 70.5179 211.693 71.1533 214.415C71.7888 217.138 73.3277 219.565 75.5192 221.301C77.7107 223.037 80.4256 223.98 83.2214 223.976ZM83.2214 202.298C85.06 202.298 86.8573 202.844 88.386 203.865C89.9147 204.887 91.1062 206.338 91.8098 208.037C92.5134 209.736 92.6975 211.605 92.3388 213.408C91.9801 215.211 91.0947 216.868 89.7947 218.168C88.4946 219.468 86.8382 220.353 85.035 220.712C83.2317 221.07 81.3626 220.886 79.664 220.183C77.9654 219.479 76.5135 218.288 75.4921 216.759C74.4706 215.23 73.9254 213.433 73.9254 211.594C73.9254 209.129 74.9048 206.764 76.6481 205.021C78.3915 203.278 80.756 202.298 83.2214 202.298Z" fill="white"/>
<defs>
<filter id="filter0_d_1423_1614" x="73.68" y="72.2534" width="332.933" height="89.4666" filterUnits="userSpaceOnUse" color-interpolation-filters="sRGB">
<feFlood flood-opacity="0" result="BackgroundImageFix"/>
<feColorMatrix in="SourceAlpha" type="matrix" values="0 0 0 0 0 0 0 0 0 0 0 0 0 0 0 0 0 0 127 0" result="hardAlpha"/>
<feOffset dy="3"/>
<feGaussianBlur stdDeviation="3"/>
<feColorMatrix type="matrix" values="0 0 0 0 0 0 0 0 0 0 0 0 0 0 0 0 0 0 0.161 0"/>
<feBlend mode="normal" in2="BackgroundImageFix" result="effect1_dropShadow_1423_1614"/>
<feBlend mode="normal" in="SourceGraphic" in2="effect1_dropShadow_1423_1614" result="shape"/>
</filter>
<filter id="filter1_d_1423_1614" x="40.48" y="171.853" width="332.933" height="89.4666" filterUnits="userSpaceOnUse" color-interpolation-filters="sRGB">
<feFlood flood-opacity="0" result="BackgroundImageFix"/>
<feColorMatrix in="SourceAlpha" type="matrix" values="0 0 0 0 0 0 0 0 0 0 0 0 0 0 0 0 0 0 127 0" result="hardAlpha"/>
<feOffset dy="3"/>
<feGaussianBlur stdDeviation="3"/>
<feColorMatrix type="matrix" values="0 0 0 0 0 0 0 0 0 0 0 0 0 0 0 0 0 0 0.161 0"/>
<feBlend mode="normal" in2="BackgroundImageFix" result="effect1_dropShadow_1423_1614"/>
<feBlend mode="normal" in="SourceGraphic" in2="effect1_dropShadow_1423_1614" result="shape"/>
</filter>
<linearGradient id="paint0_linear_1423_1614" x1="166" y1="0" x2="166" y2="332" gradientUnits="userSpaceOnUse">
<stop stop-color="#E3ECFA"/>
<stop offset="1" stop-color="#DAE7FF"/>
</linearGradient>
</defs>
</svg>
