<svg width="45" height="45" viewBox="0 0 45 45" fill="none" xmlns="http://www.w3.org/2000/svg">
<rect width="45" height="45" rx="5" fill="url(#paint0_linear_1454_1812)"/>
<path fill-rule="evenodd" clip-rule="evenodd" d="M35 15.1852C35 15.529 34.8495 15.8587 34.5816 16.1018C34.3137 16.3449 33.9503 16.4815 33.5714 16.4815H29.2857C28.9068 16.4815 28.5435 16.6181 28.2756 16.8612C28.0077 17.1043 27.8571 17.434 27.8571 17.7778V22.963H33.2571C33.4685 22.963 33.6772 23.0055 33.8682 23.0876C34.0592 23.1696 34.2278 23.2891 34.3618 23.4374C34.4957 23.5857 34.5918 23.7591 34.643 23.9452C34.6942 24.1312 34.6993 24.3253 34.6579 24.5133L33.8007 28.4022C33.736 28.6961 33.561 28.9605 33.3057 29.1505C33.0503 29.3406 32.7303 29.4444 32.4 29.4444H27.8571V45H20.7143V29.4444H16.4286C16.0497 29.4444 15.6863 29.3079 15.4184 29.0648C15.1505 28.8217 15 28.4919 15 28.1481V24.2593C15 23.9155 15.1505 23.5857 15.4184 23.3426C15.6863 23.0995 16.0497 22.963 16.4286 22.963H20.7143V17.7778C20.7143 15.715 21.6173 13.7367 23.2248 12.2781C24.8323 10.8194 27.0124 10 29.2857 10H33.5714C33.9503 10 34.3137 10.1366 34.5816 10.3797C34.8495 10.6228 35 10.9525 35 11.2963V15.1852Z" fill="white"/>
<defs>
<linearGradient id="paint0_linear_1454_1812" x1="4" y1="4" x2="41.5" y2="40" gradientUnits="userSpaceOnUse">
<stop stop-color="#507DD2"/>
<stop offset="1" stop-color="#1E4BA0"/>
</linearGradient>
</defs>
</svg>
