<svg width="34" height="32" viewBox="0 0 34 32" fill="none" xmlns="http://www.w3.org/2000/svg">
<mask id="mask0_1138_9583" style="mask-type:luminance" maskUnits="userSpaceOnUse" x="0" y="0" width="34" height="32">
<path d="M33.35 31.35V0.65H0.65V31.35H33.35Z" fill="white" stroke="white" stroke-width="1.3"/>
</mask>
<g mask="url(#mask0_1138_9583)">
<path d="M24.4325 28.0898L17 30.7207L0.664062 24.9382C5.07742 23.3763 9.6042 21.7737 13.9035 20.252" stroke="#1B2E5E" stroke-width="1.3" stroke-miterlimit="10" stroke-linecap="round" stroke-linejoin="round"/>
<path d="M20.0957 20.2518C24.5091 21.8137 28.9218 23.3762 33.3351 24.9381L29.651 26.2422" stroke="#1B2E5E" stroke-width="1.3" stroke-miterlimit="10" stroke-linecap="round" stroke-linejoin="round"/>
<mask id="path-4-inside-1_1138_9583" fill="white">
<path d="M27.707 27.1655C27.707 27.5107 27.4097 27.7905 27.043 27.7905C26.6763 27.7905 26.3789 27.5107 26.3789 27.1655C26.3789 26.8204 26.6763 26.5405 27.043 26.5405C27.4097 26.5405 27.707 26.8204 27.707 27.1655Z"/>
</mask>
<path d="M27.707 27.1655C27.707 27.5107 27.4097 27.7905 27.043 27.7905C26.6763 27.7905 26.3789 27.5107 26.3789 27.1655C26.3789 26.8204 26.6763 26.5405 27.043 26.5405C27.4097 26.5405 27.707 26.8204 27.707 27.1655Z" fill="#1B2E5E"/>
<path d="M29.007 27.1655C29.007 28.3018 28.0523 29.0905 27.043 29.0905V26.4905C26.7671 26.4905 26.407 26.7196 26.407 27.1655H29.007ZM27.043 29.0905C26.0338 29.0905 25.0789 28.3019 25.0789 27.1655H27.6789C27.6789 26.7195 27.3188 26.4905 27.043 26.4905V29.0905ZM25.0789 27.1655C25.0789 26.0293 26.0337 25.2405 27.043 25.2405V27.8405C27.3189 27.8405 27.6789 27.6115 27.6789 27.1655H25.0789ZM27.043 25.2405C28.0524 25.2405 29.007 26.0294 29.007 27.1655H26.407C26.407 27.6114 26.767 27.8405 27.043 27.8405V25.2405Z" fill="#1B2E5E" mask="url(#path-4-inside-1_1138_9583)"/>
<path d="M16.9993 24.9385L9.62239 13.7722C6.0245 8.32617 10.1856 1.27954 16.9993 1.27954C23.8131 1.27954 27.9742 8.32617 24.3763 13.7722L16.9993 24.9385Z" stroke="#1B2E5E" stroke-width="1.3" stroke-miterlimit="10" stroke-linecap="round" stroke-linejoin="round"/>
<path d="M21.3509 9.46764C21.3509 7.20639 19.4032 5.37332 17.0007 5.37332C14.5982 5.37332 12.6504 7.20639 12.6504 9.46764C12.6504 11.7289 14.5982 13.562 17.0007 13.562C19.4032 13.562 21.3509 11.7289 21.3509 9.46764Z" stroke="#1B2E5E" stroke-width="1.3" stroke-miterlimit="10" stroke-linecap="round" stroke-linejoin="round"/>
<path d="M12.8145 8.34907C13.8825 8.30182 15.4246 8.38101 17.13 8.9682C18.5518 9.45726 19.8492 10.2211 20.9385 11.2104" stroke="#1B2E5E" stroke-width="1.3" stroke-miterlimit="10" stroke-linejoin="round"/>
</g>
</svg>
