<?xml version="1.0" encoding="UTF-8"?>
<svg id="Layer_1" data-name="Layer 1" xmlns="http://www.w3.org/2000/svg" xmlns:xlink="http://www.w3.org/1999/xlink" viewBox="0 0 666.96 291.24">
  <defs>
    <style>
      .cls-1 {
        fill: #fff;
      }

      .cls-2 {
        fill: #0d8dcc;
      }

      .cls-3 {
        fill: url(#radial-gradient);
      }

      .cls-4 {
        fill: url(#linear-gradient);
      }
    </style>
    <radialGradient id="radial-gradient" cx="439.25" cy="139.03" fx="451.71" fy="129.74" r="15.54" gradientUnits="userSpaceOnUse">
      <stop offset=".09" stop-color="#fff"/>
      <stop offset=".34" stop-color="#75c8eb"/>
      <stop offset=".48" stop-color="#27aae1"/>
      <stop offset=".85" stop-color="#123257"/>
      <stop offset=".86" stop-color="#123054"/>
    </radialGradient>
    <linearGradient id="linear-gradient" x1="70.31" y1="241.34" x2="550.28" y2="241.34" gradientUnits="userSpaceOnUse">
      <stop offset="0" stop-color="#0d8dcc"/>
      <stop offset=".08" stop-color="#128fcd"/>
      <stop offset=".18" stop-color="#2196d0"/>
      <stop offset=".3" stop-color="#3aa2d5"/>
      <stop offset=".42" stop-color="#5db2dc"/>
      <stop offset=".54" stop-color="#8ac8e6"/>
      <stop offset=".67" stop-color="#c0e1f1"/>
      <stop offset=".8" stop-color="#fff"/>
    </linearGradient>
  </defs>
  <path class="cls-2" d="m74.8,78.79h-8.65l-5.54,31.63h-18.04l14.8-85.14h24.29c11.66,0,22.97,6.25,22.97,22.12,0,20.33-12.39,31.39-29.83,31.39Zm3.97-37.88h-6.13l-3.85,22.97h6.37c7.1,0,11.91-5.41,11.91-13.83,0-5.77-3.13-9.14-8.29-9.14Z"/>
  <path class="cls-1" d="m121.71,110.42h-17.68l15.87-90.92h17.68l-15.87,90.92Z"/>
  <path class="cls-1" d="m183.04,75.18l-3.97,22.97c-.61,3.49-1.45,10.22-1.56,12.27h-14.67c.12-1.92.6-5.77,1.08-7.82h-.36c-2.64,5.66-7.21,9.38-14.67,9.38-6.73,0-13.83-4.93-13.83-15.63,0-18.28,13.71-24.89,29.47-24.89h3.01c.36-1.68.6-3.25.6-4.09,0-4.21-2.04-6.5-6.13-6.5-4.44,0-8.77,2.29-11.78,5.05l-6.74-11.18c5.54-5.29,13.71-8.78,21.29-8.78,13.59,0,19.36,7.1,19.36,18.64,0,3.25-.36,6.73-1.08,10.58Zm-20.2,7.7c-6.5,0-12.51,2.89-12.51,10.1,0,3.85,2.04,5.77,4.81,5.77,5.89,0,9.13-6.73,10.34-12.87l.6-3h-3.24Z"/>
  <path class="cls-1" d="m245.45,72.06l-6.61,38.36h-17.56l6.74-38.36c.24-1.45.48-3.01.48-4.45,0-3.37-1.08-6.13-4.93-6.13-4.81,0-8.54,5.17-9.74,12.26l-6.37,36.68h-17.56l8.29-47.26c.72-3.97,1.93-12.51,2.29-15.27h16.6c-.24,2.29-.72,6.13-1.21,9.14h.24c3.13-6.25,9.02-11.06,16.6-11.06,10.1,0,13.95,7.94,13.95,15.15,0,3-.48,7.1-1.2,10.94Z"/>
  <path class="cls-1" d="m260,124.73h-13.35l12.87-33.91h15.99l-15.51,33.91Z"/>
  <path class="cls-2" d="m372.09,110.42h-18.16l10.95-59.17h-.36l-25.01,59.17h-13.23l-3.85-59.17h-.36l-9.74,59.17h-16.71l14.91-85.14h23.22l4.08,55.68h.48l23.22-55.68h25.49l-14.91,85.14Z"/>
  <path class="cls-1" d="m434.02,75.18l-3.97,22.97c-.61,3.49-1.45,10.22-1.56,12.27h-14.67c.12-1.92.6-5.77,1.08-7.82h-.35c-2.65,5.66-7.22,9.38-14.68,9.38-6.73,0-13.83-4.93-13.83-15.63,0-18.28,13.71-24.89,29.47-24.89h3.01c.36-1.68.6-3.25.6-4.09,0-4.21-2.04-6.5-6.13-6.5-4.44,0-8.77,2.29-11.78,5.05l-6.74-11.18c5.54-5.29,13.71-8.78,21.29-8.78,13.59,0,19.36,7.1,19.36,18.64,0,3.25-.36,6.73-1.08,10.58Zm-20.2,7.7c-6.5,0-12.51,2.89-12.51,10.1,0,3.85,2.04,5.77,4.81,5.77,5.89,0,9.13-6.73,10.33-12.87l.61-3h-3.24Z"/>
  <path class="cls-1" d="m477.92,63.51c-2.29-2.4-5.53-4.09-9.49-4.09-3.61,0-6.98,2.16-6.98,6.37,0,3.37,1.92,4.57,6.98,7.22,6.61,3.37,12.75,8.3,12.75,17.07,0,16.48-12.99,22.25-23.7,22.25-8.06,0-15.99-3.13-20.69-7.94l9.75-11.31c2.88,3.13,6.73,5.41,10.94,5.41,3.85,0,7.22-2.29,7.22-6.5,0-3.73-3.01-5.89-8.18-8.41-6.26-3.01-11.43-7.46-11.43-15.99,0-15.52,13.23-21.65,24.05-21.65,7.34,0,14.07,2.52,17.92,6.13l-9.14,11.42Z"/>
  <path class="cls-1" d="m524.58,61.95h-10.11l-4.69,25.62c-.23,1.21-.48,3.13-.48,4.09,0,3.73,1.92,5.29,5.17,5.29,1.33,0,3.13-.36,4.21-.72l-2.29,13.35c-2.29,1.08-6.13,1.92-9.13,1.92-10.34,0-15.64-5.29-15.64-14.07,0-1.44.24-3.49.48-5.41l5.29-30.06h-8.3l2.53-14.07h8.18l2.65-15.27h16.96l-2.76,15.27h10.59l-2.65,14.07Z"/>
  <path class="cls-1" d="m574.6,83.36h-31.27c-.24,1.57-.36,2.77-.36,3.97,0,5.65,2.4,9.62,7.22,9.62,4.33,0,7.22-3.37,9.26-6.86l12.02,7.82c-4.33,8.06-12.27,14.43-23.21,14.43-14.07,0-22.13-9.26-22.13-24.78,0-22.61,12.99-41.61,30.07-41.61,14.43,0,20.2,9.38,20.2,22.01,0,3.25-.36,8.42-1.81,15.39Zm-19.12-23.93c-5.29,0-9.14,7.1-10.11,12.87h15.28c.24-.96.48-3.25.48-4.57,0-5.05-1.8-8.3-5.65-8.3Z"/>
  <path class="cls-1" d="m620.42,64.11c-.96-.24-2.04-.48-3.73-.48-6.5,0-11.42,7.57-12.86,15.75l-5.41,31.03h-17.68l8.3-47.26c.71-3.97,2.04-12.51,2.28-15.27h16.48c-.12,2.29-.96,8.3-1.32,10.82h.36c3.36-8.3,8.42-12.75,14.55-12.75,1.2,0,2.4.12,3,.36l-3.97,17.8Z"/>
  <circle class="cls-3" cx="439.25" cy="139.03" r="15.54"/>
  <path class="cls-1" d="m149.72,186.19l-3.97,22.97c-.61,3.49-1.45,10.22-1.56,12.27h-14.67c.12-1.92.6-5.77,1.08-7.82h-.36c-2.64,5.66-7.21,9.38-14.67,9.38-6.73,0-13.83-4.93-13.83-15.63,0-18.28,13.71-24.89,29.47-24.89h3.01c.36-1.68.6-3.25.6-4.09,0-4.21-2.04-6.5-6.13-6.5-4.44,0-8.77,2.29-11.78,5.05l-6.74-11.18c5.54-5.29,13.71-8.78,21.29-8.78,13.59,0,19.36,7.1,19.36,18.64,0,3.25-.36,6.73-1.08,10.58Zm-20.2,7.7c-6.5,0-12.51,2.89-12.51,10.1,0,3.85,2.04,5.77,4.81,5.77,5.89,0,9.13-6.73,10.34-12.87l.6-3h-3.24Z"/>
  <path class="cls-1" d="m212.14,183.06l-6.61,38.36h-17.56l6.74-38.36c.24-1.45.48-3.01.48-4.45,0-3.37-1.08-6.13-4.93-6.13-4.81,0-8.54,5.17-9.74,12.26l-6.37,36.68h-17.56l8.29-47.26c.72-3.97,1.93-12.51,2.29-15.27h16.6c-.24,2.29-.72,6.13-1.21,9.14h.24c3.13-6.25,9.02-11.06,16.6-11.06,10.1,0,13.95,7.94,13.95,15.15,0,3-.48,7.1-1.2,10.94Z"/>
  <path class="cls-1" d="m267.34,221.42h-16.72l1.33-8.06h-.13c-2.88,5.53-7.09,9.98-14.54,9.98-10.95,0-16.24-9.38-16.24-22.49,0-19.6,9.5-43.9,26.7-43.9,7.09,0,10.7,3.61,11.66,8.9h.36l6.25-35.35h17.2l-15.87,90.92Zm-16.48-49.43c-8.18,0-12.39,15.99-12.39,25.86,0,6.13,1.92,10.34,6.5,10.34,7.81,0,12.26-15.63,12.26-25.38,0-6.37-1.92-10.82-6.37-10.82Z"/>
  <path class="cls-1" d="m562.68,194.36h-31.27c-.24,1.57-.36,2.77-.36,3.97,0,5.65,2.4,9.62,7.22,9.62,4.33,0,7.22-3.37,9.26-6.86l12.02,7.82c-4.33,8.06-12.27,14.43-23.21,14.43-14.07,0-22.13-9.26-22.13-24.78,0-22.61,12.99-41.61,30.07-41.61,14.43,0,20.2,9.38,20.2,22.01,0,3.25-.36,8.42-1.81,15.39Zm-19.12-23.93c-5.29,0-9.14,7.1-10.11,12.87h15.28c.24-.96.48-3.25.48-4.57,0-5.05-1.8-8.3-5.65-8.3Z"/>
  <path class="cls-2" d="m329.81,214.58c4.25-.66,8.46-1.21,12.68-1.77,3.62-4.64,5.9-10.75,5.9-18.45,0-12.39-8.65-18.76-15.15-22.61-5.53-3.25-8.42-5.77-8.42-10.46,0-7.34,6.02-10.7,10.46-10.7s8.54,2.04,11.31,5.17l10.94-13.35c-4.33-4.93-12.39-8.3-22.12-8.3-17.32,0-29.35,12.51-29.35,28.86,0,11.91,6.86,17.68,14.32,21.89,6.37,3.61,9.02,6.97,9.02,11.67,0,6.49-5.29,10.34-10.58,10.34s-10.11-2.64-13.35-6.25l-10.95,13.83c1.7,1.83,4.11,3.41,6.78,4.81,9.48-1.68,18.99-3.29,28.53-4.68Z"/>
  <path class="cls-4" d="m47,226.55c94.03,39.58,186.9,6.46,282.82-7.53,48.7-7.55,99.48-11.17,149.59-4.85,50.04,6.04,98.7,22.58,140.57,48.73-47.96-11.83-95.17-19.63-142.6-19.7-47.36-.66-94.36,5.1-141.98,12.4-92.88,14.07-208.8,38.6-288.39-29.04h0Z"/>
  <path class="cls-1" d="m374.26,209.53l4.3-24.79c1.33-7.1,4.93-12.26,9.75-12.26,3.85,0,4.93,2.76,4.93,6.13,0,1.44-.24,3-.49,4.45l-4.49,25.61c5.86-.27,11.73-.43,17.6-.49l4.34-25.12c.71-3.85,1.2-7.94,1.2-10.94,0-7.22-3.61-15.15-13.71-15.15-7.58,0-12.86,4.81-15.99,10.46h-.24l6.5-36.92h-17.44l-14.09,80.64c5.96-.64,11.91-1.18,17.83-1.62Z"/>
  <path class="cls-1" d="m437.51,208.84l8.64-49.95h-17.56l-8.53,49.31c5.79.11,11.6.32,17.45.64Z"/>
  <path class="cls-1" d="m469.03,211.61l4.66-26.86c1.2-7.1,4.93-12.26,9.74-12.26,3.85,0,4.93,2.76,4.93,6.13,0,1.44-.23,3-.48,4.45l-5.33,30.35c5.66.83,11.33,1.79,17.03,2.92l5.73-33.27c.72-3.85,1.2-7.94,1.2-10.94,0-7.22-3.85-15.15-13.95-15.15-7.58,0-13.47,4.81-16.6,11.06h-.24c.49-3,.97-6.85,1.21-9.14h-16.6c-.35,2.76-1.56,11.31-2.29,15.27l-6.27,35.72c5.7.47,11.45,1.06,17.24,1.73Z"/>
</svg>