<svg width="45" height="45" viewBox="0 0 45 45" fill="none" xmlns="http://www.w3.org/2000/svg">
<path d="M24.0048 21.7318L34.1314 36.2165H29.9754L21.7119 24.3969V24.3962L20.4987 22.6611L10.8455 8.85303H15.0015L22.7916 19.9967L24.0048 21.7318Z" fill="black"/>
<path d="M40.1377 0H4.86235C2.17702 0 0 2.17702 0 4.86235V40.1377C0 42.823 2.17702 45 4.86235 45H40.1377C42.823 45 45 42.823 45 40.1377V4.86235C45 2.17702 42.823 0 40.1377 0ZM28.7024 38.1609L20.3402 25.9907L9.87066 38.1609H7.16479L19.1388 24.2428L7.16479 6.81601H16.2976L24.216 18.3403L34.13 6.81601H36.8358L25.4178 20.0886H25.4171L37.8352 38.1609H28.7024Z" fill="black"/>
</svg>
