<svg width="116" height="113" viewBox="0 0 116 113" fill="none" xmlns="http://www.w3.org/2000/svg">
<path d="M64.5609 18.131V0.5H51.4641V18.1213L58 15.8283L64.5609 18.131ZM94.5213 55.1126V32.4862L58 19.6725L21.5037 32.4862V55.1006L58 35.9787L94.5213 55.1126ZM79.334 36.1256C79.4176 35.9025 79.546 35.6974 79.7118 35.5223C79.8777 35.3472 80.0777 35.2054 80.3005 35.1051C80.5232 35.0049 80.7643 34.9481 81.0099 34.938C81.2554 34.928 81.5006 34.9649 81.7314 35.0466L86.8553 36.8458C87.3091 37.0185 87.675 37.3554 87.8753 37.7847C88.0755 38.2141 88.0942 38.702 87.9274 39.1445C87.7605 39.5869 87.4213 39.949 86.982 40.1536C86.5427 40.3581 86.0381 40.389 85.5756 40.2395L80.4516 38.4355C79.9872 38.2709 79.6091 37.9357 79.3997 37.503C79.1903 37.0702 79.1667 36.5751 79.334 36.1256ZM69.5002 32.2526C69.5838 32.0294 69.7122 31.8243 69.878 31.6491C70.0438 31.4739 70.2437 31.332 70.4664 31.2315C70.6891 31.1311 70.9302 31.074 71.1758 31.0637C71.4213 31.0533 71.6666 31.0898 71.8975 31.1711L77.019 32.9704C77.25 33.0515 77.4621 33.1758 77.6433 33.336C77.8246 33.4963 77.9713 33.6895 78.0752 33.9046C78.1791 34.1196 78.2381 34.3523 78.2488 34.5894C78.2596 34.8265 78.2219 35.0632 78.1378 35.2862C78.0538 35.5092 77.9251 35.7141 77.7591 35.889C77.5931 36.064 77.393 36.2057 77.1703 36.306C76.9475 36.4063 76.7065 36.4633 76.461 36.4737C76.2155 36.484 75.9702 36.4476 75.7393 36.3665L70.6178 34.5673C70.1518 34.4033 69.7723 34.0673 69.5627 33.6333C69.3532 33.1993 69.3307 32.7026 69.5002 32.2526ZM35.3688 38.4355L30.2473 40.2347C30.0149 40.3232 29.7665 40.3658 29.5167 40.36C29.2669 40.3543 29.0209 40.3003 28.7931 40.2012C28.5653 40.1022 28.3603 39.9601 28.1903 39.7833C28.0203 39.6066 27.8887 39.3988 27.8032 39.1721C27.7178 38.9454 27.6802 38.7045 27.6927 38.4636C27.7052 38.2227 27.7675 37.9867 27.8761 37.7694C27.9846 37.5521 28.1371 37.358 28.3245 37.1986C28.512 37.0391 28.7307 36.9175 28.9676 36.841L34.0915 35.0418C34.5529 34.8967 35.0547 34.9305 35.4908 35.1359C35.927 35.3412 36.2634 35.7022 36.4291 36.1425C36.5949 36.5829 36.5769 37.0682 36.3791 37.496C36.1812 37.9238 35.819 38.2607 35.3688 38.4355ZM45.2051 34.5625L40.0811 36.3617C39.8762 36.4328 39.6602 36.4695 39.4425 36.4701C39.0025 36.4701 38.5765 36.3204 38.2394 36.0473C37.9024 35.7742 37.6758 35.3951 37.5995 34.9766C37.5233 34.5582 37.6022 34.1272 37.8225 33.7594C38.0427 33.3916 38.3902 33.1105 38.8039 32.9655L43.9253 31.1663C44.3918 31.0025 44.9065 31.0242 45.3563 31.2268C45.8062 31.4294 46.1542 31.7962 46.3239 32.2466C46.4936 32.6969 46.4711 33.1939 46.2613 33.6282C46.0514 34.0626 45.6715 34.3986 45.2051 34.5625ZM38.6667 112.5H77.3333C69.9991 112.5 63.6428 103.395 58 103.395C52.3572 103.395 46.0009 112.5 38.6667 112.5ZM0 112.5H38.6667C31.3325 112.5 24.9762 103.395 19.3333 103.395C13.6905 103.395 7.33419 112.5 0 112.5ZM96.6667 103.395C91.0238 103.395 84.6675 112.5 77.3333 112.5H116C108.666 112.5 102.31 103.395 96.6667 103.395Z" fill="#1B2E5E"/>
<path d="M19.3339 99.7828C23.2006 99.7828 26.6382 102.228 29.9585 104.6C32.9246 106.712 35.9905 108.895 38.6672 108.895C41.344 108.895 44.4049 106.712 47.376 104.6C49.9253 102.487 52.9084 100.919 56.1296 99.9972V55.6572C56.1296 55.1781 56.3267 54.7187 56.6776 54.3799C57.0285 54.0411 57.5044 53.8508 58.0006 53.8508C58.4968 53.8508 58.9727 54.0411 59.3236 54.3799C59.6744 54.7187 59.8715 55.1781 59.8715 55.6572V99.99C63.0928 100.912 66.0758 102.48 68.6252 104.593C71.5913 106.705 74.6572 108.887 77.3339 108.887C80.0106 108.887 83.0715 106.705 86.0426 104.593C89.363 102.228 92.8006 99.7756 96.6673 99.7756C97.0446 99.7814 97.4212 99.8103 97.7948 99.8623L112.608 68.6878L59.8715 41.0852V48.3833C59.8715 48.8624 59.6744 49.3218 59.3236 49.6606C58.9727 49.9994 58.4968 50.1897 58.0006 50.1897C57.5044 50.1897 57.0285 49.9994 56.6776 49.6606C56.3267 49.3218 56.1296 48.8624 56.1296 48.3833V41.0852L3.41821 68.6878L18.6953 99.831C18.9073 99.8166 19.1169 99.7828 19.3339 99.7828Z" fill="#1B2E5E"/>
</svg>
